<?xml version="1.0" encoding="utf-8"?>
<!-- Generator: Adobe Illustrator 24.0.1, SVG Export Plug-In . SVG Version: 6.00 Build 0)  -->
<svg version="1.1" id="图层_1" xmlns="http://www.w3.org/2000/svg" xmlns:xlink="http://www.w3.org/1999/xlink" x="0px" y="0px"
	 viewBox="0 0 488 488" style="enable-background:new 0 0 488 488;" xml:space="preserve">
<style type="text/css">
	.st0{fill:#263238;}
	.st1{fill:#33CCCC;}
	.st2{fill:none;stroke:#263238;stroke-width:8;stroke-miterlimit:10;}
</style>
<g>
	<path class="st0" d="M460,88h-32c-2.2,0-4-1.8-4-4s1.8-4,4-4h32c2.2,0,4,1.8,4,4S462.2,88,460,88z"/>
	<path class="st0" d="M420,40h-32c-2.2,0-4-1.8-4-4s1.8-4,4-4h32c2.2,0,4,1.8,4,4S422.2,40,420,40z"/>
	<path class="st0" d="M404,56c-2.2,0-4-1.8-4-4V20c0-2.2,1.8-4,4-4s4,1.8,4,4v32C408,54.2,406.2,56,404,56z"/>
	<path class="st0" d="M444,104c-2.2,0-4-1.8-4-4V68c0-2.2,1.8-4,4-4s4,1.8,4,4v32C448,102.2,446.2,104,444,104z"/>
</g>
<g>
	<path class="st1" d="M305.9,208.7c0-36.7-33.5-65.5-71.6-57.5c-22.5,4.7-40.5,23.1-44.9,45.6c-4,20,2.2,38.4,14.3,51.5
		c8.5,9.3,14,20.9,14,33.5v3.5h58.9v-3.5c0-12.7,5.5-24.4,14.1-33.7C300,237.7,305.9,223.9,305.9,208.7z"/>
	<path class="st2" d="M182.5,213.4c-2-40.1,25.5-63.2,50.5-68.1c21.1-4.1,39.5,0.6,54.8,13c15.2,12.4,24,30.7,24,50.3
		c0,16.1-6,31.4-16.9,43.4c-5.7,6.2-12.5,16.5-12.5,29.7v3.5"/>
	<path class="st0" d="M247,370c-19.5,0-35.3-15.9-35.3-35.3v-29.4c0-3.2,2.6-5.9,5.9-5.9h58.9c3.3,0,5.9,2.6,5.9,5.9v29.4
		C282.3,354.1,266.5,370,247,370z M223.4,311.1v23.6c0,13,10.6,23.6,23.6,23.6s23.6-10.6,23.6-23.6v-23.6H223.4z"/>
	<path class="st0" d="M247,120.3c-3.2,0-5.9-2.6-5.9-5.9V90.9c0-3.2,2.6-5.9,5.9-5.9c3.3,0,5.9,2.6,5.9,5.9v23.6
		C252.9,117.7,250.3,120.3,247,120.3z"/>
	<path class="st0" d="M188.1,140.4c-1.5,0-3-0.6-4.2-1.7l-16.6-16.7c-2.3-2.3-2.3-6,0-8.3c2.3-2.3,6-2.3,8.3,0l16.7,16.7
		c2.3,2.3,2.3,6,0,8.3C191.1,139.9,189.6,140.4,188.1,140.4z"/>
	<path class="st0" d="M305.9,140.4c-1.5,0-3-0.6-4.2-1.7c-2.3-2.3-2.3-6,0-8.3l16.7-16.7c2.3-2.3,6-2.3,8.3,0c2.3,2.3,2.3,6,0,8.3
		L310,138.7C308.9,139.9,307.4,140.4,305.9,140.4z"/>
</g>
<path class="st2" d="M168,477V349.7c0,0-56.2-37.1-74.4-99.7c-13.3-45.6-3.2-117.8,34.6-159.6C179.2,34,263.4,23.2,316.6,54.9
	c87.4,52.1,80.9,129.5,83.4,143.4c3.3,18.3,42.9,57.4,40.6,72.8c-1,6.5-5.6,12.3-12.8,13.6c-6.9,1.2-27.5,0.8-27.5,0.8
	s1.5,66.2-8.1,83.2c-12.3,21.8-24.5,27.4-44.7,28.4c-25.2,1.3-59.6-0.2-59.6-0.2v80H168z"/>
</svg>
